# xmcd
#
# Track frame offsets:
#	150
#	26477
#	42382
#	61335
#	77187
#	92673
#	111079
#	128886
#	153464
#	171576
#	187483
#	202706
#	218837
#	239879
#	262303
#	291422
#
# Disc length: 3891 seconds
#
# Revision: 1
# Processed by: cddbd v1.5.2PL0 Copyright (c) Steve Scherf et al.
# Submitted via: audiograbber 1.83.01
#
DISCID=fc0f3110
DTITLE=Various Artist - ASK49-2
DYEAR=2006
DGENRE=Karaoke
TTITLE0=Matina McBride - God's Will
TTITLE1=Montgomery Gentry - If You Eer stop Loving Me
TTITLE2=Montgomery Gentry - Gone
TTITLE3=Phil Vassar - In A Real Love
TTITLE4=Rascal Flats - Feels Like Today
TTITLE5=Rascal Flats - Mayberry
TTITLE6=Sara Evens - Suds In The Bucket
TTITLE7=Sara Evens - Tonight
TTITLE8=Shinia Twain - Don't
TTITLE9=Shinia Twain (With Billy Currington) - Party For Two
TTITLE10=Tanya Tucker - A Memory Like I'm Gonna Be
TTITLE11=Terri Clark - Girls Lie Too
TTITLE12=Tim McGraw - Back When
TTITLE13=Tim McGraw - Live Like You Were Dying
TTITLE14=Toby Keith - Whisky Girl
TTITLE15=data - Data Track
EXTD=
EXTT0=
EXTT1=
EXTT2=
EXTT3=
EXTT4=
EXTT5=
EXTT6=
EXTT7=
EXTT8=
EXTT9=
EXTT10=
EXTT11=
EXTT12=
EXTT13=
EXTT14=
EXTT15=
PLAYORDER=
